<svg width="40" height="40" viewBox="0 0 40 40" fill="none" xmlns="http://www.w3.org/2000/svg">
    <rect width="40" height="40" rx="20" fill="#FF6600" />
    <path fill-rule="evenodd" clip-rule="evenodd"
        d="M20 11C19.4477 11 19 11.4477 19 12V19H11.993C11.445 19 11 19.448 11 20C11 20.557 11.445 21 11.993 21H19V28C19 28.5523 19.4477 29 20 29C20.5523 29 21 28.5523 21 28V21H28.007C28.555 21 29 20.552 29 20C29 19.444 28.555 19 28.007 19H21V12C21 11.4477 20.5523 11 20 11Z"
        fill="#FF6600" />
    <mask id="mask0_8362_158652" style="mask-type:luminance" maskUnits="userSpaceOnUse" x="11"
        y="11" width="18" height="18">
        <path fill-rule="evenodd" clip-rule="evenodd"
            d="M20 11C19.4477 11 19 11.4477 19 12V19H11.993C11.445 19 11 19.448 11 20C11 20.557 11.445 21 11.993 21H19V28C19 28.5523 19.4477 29 20 29C20.5523 29 21 28.5523 21 28V21H28.007C28.555 21 29 20.552 29 20C29 19.444 28.555 19 28.007 19H21V12C21 11.4477 20.5523 11 20 11Z"
            fill="white" />
    </mask>
    <g mask="url(#mask0_8362_158652)">
        <rect x="8" y="8" width="24" height="24" fill="white" />
    </g>
</svg>