<svg width="32" height="32" viewBox="0 0 32 32" fill="none" xmlns="http://www.w3.org/2000/svg">
<rect x="2" y="0.5" width="28" height="31" rx="5" fill="#FF6600"/>
<path d="M15.7897 20.5V12.1H14.4317V10.294H17.8057V20.5H15.7897Z" fill="white"/>
<rect width="32" height="32" rx="5" fill="#FF6600"/>
<path fill-rule="evenodd" clip-rule="evenodd" d="M16 7.75C15.4937 7.75 15.0833 8.16041 15.0833 8.66667V15.0833H8.66025C8.15792 15.0833 7.75 15.494 7.75 16C7.75 16.5106 8.15792 16.9167 8.66025 16.9167H15.0833V23.3333C15.0833 23.8396 15.4937 24.25 16 24.25C16.5063 24.25 16.9167 23.8396 16.9167 23.3333V16.9167H23.3398C23.8421 16.9167 24.25 16.506 24.25 16C24.25 15.4903 23.8421 15.0833 23.3398 15.0833H16.9167V8.66667C16.9167 8.16041 16.5063 7.75 16 7.75Z" fill="#54E70A"/>
<mask id="mask0_10312_177435" style="mask-type:luminance" maskUnits="userSpaceOnUse" x="7" y="7" width="18" height="18">
<path fill-rule="evenodd" clip-rule="evenodd" d="M16 7.75C15.4937 7.75 15.0833 8.16041 15.0833 8.66667V15.0833H8.66025C8.15792 15.0833 7.75 15.494 7.75 16C7.75 16.5106 8.15792 16.9167 8.66025 16.9167H15.0833V23.3333C15.0833 23.8396 15.4937 24.25 16 24.25C16.5063 24.25 16.9167 23.8396 16.9167 23.3333V16.9167H23.3398C23.8421 16.9167 24.25 16.506 24.25 16C24.25 15.4903 23.8421 15.0833 23.3398 15.0833H16.9167V8.66667C16.9167 8.16041 16.5063 7.75 16 7.75Z" fill="white"/>
</mask>
<g mask="url(#mask0_10312_177435)">
<rect x="5" y="5" width="22" height="22" fill="white"/>
</g>
</svg>
