<svg width="32" height="32" viewBox="0 0 32 32" fill="none" xmlns="http://www.w3.org/2000/svg">
<rect width="32" height="32" rx="5" fill="#E4EAF0"/>
<path d="M23.9734 10.2246C23.9176 10.0888 23.7849 10 23.6391 10H8.36068C8.21408 10 8.08193 10.0888 8.02705 10.2246C7.97144 10.3603 8.00322 10.5149 8.10721 10.6174L14.1949 16.6242V23.0585C14.1949 23.1871 14.2635 23.3062 14.3747 23.3719C14.431 23.4044 14.4931 23.4196 14.5559 23.4196C14.6173 23.4196 14.6794 23.4044 14.735 23.3734L17.6236 21.7269C17.7363 21.6626 17.8056 21.5427 17.8056 21.4128V16.6242L23.8934 10.6182C23.9965 10.5149 24.0283 10.3596 23.9734 10.2246Z" fill="#464646"/>
</svg>
