<svg width="12" height="12" viewBox="0 0 12 12" fill="none" xmlns="http://www.w3.org/2000/svg">
<path d="M7.43616 8.96243L7.05958 8.30869V8.30859C6.78451 8.61312 6.4871 8.89668 6.16992 9.15687C6.3541 9.29515 6.55 9.41697 6.75543 9.52106C5.83631 10.8749 7.37584 12.5673 8.82024 11.7494C10.4807 10.7278 9.24272 8.25835 7.43616 8.96251V8.96243ZM8.38576 10.9942C8.17314 11.114 7.91295 11.1121 7.70189 10.9895C7.49093 10.8667 7.36068 10.6414 7.35967 10.3974C7.35856 10.1533 7.48685 9.92693 7.6968 9.80241C7.90952 9.68261 8.16971 9.68446 8.38068 9.80712C8.59164 9.92987 8.72188 10.1551 8.72299 10.3992C8.72401 10.6433 8.59571 10.8697 8.38576 10.9942Z" fill="#704B99"/>
<path d="M5.87968 6.26693L5.72654 6H3.64307C3.97004 6.70835 4.39483 7.36718 4.90514 7.9572L5.87968 6.26693Z" fill="#704B99"/>
<path d="M8.01455 6.66543C9.01948 4.92482 9.54302 2.37119 8.66333 1.86328L4.56322 8.96448C2.75923 8.25871 1.51934 10.7293 3.17941 11.7511C4.62576 12.5687 6.1637 10.877 5.24534 9.52178C6.17685 9.06311 7.3207 7.86688 8.01446 6.66517L8.01455 6.66543ZM4.30316 10.9968C4.09054 11.1165 3.83035 11.1147 3.61948 10.9919C3.40852 10.8692 3.27846 10.6438 3.27764 10.3998C3.27671 10.1557 3.40519 9.92952 3.61522 9.80529C3.82785 9.68558 4.08804 9.68743 4.29891 9.81018C4.50978 9.93294 4.63983 10.1582 4.64075 10.4022C4.64158 10.6463 4.5131 10.8725 4.30316 10.9968Z" fill="#704B99"/>
<path d="M11.5863 0H8.03337C7.96632 0.230082 7.80255 0.419612 7.58458 0.519277C7.36669 0.619033 7.11619 0.619033 6.89832 0.519277C6.68034 0.419617 6.51657 0.230094 6.44953 0H0.413795C0.304066 0 0.198768 0.0435975 0.121183 0.121183C0.0435975 0.198768 0 0.304066 0 0.413795V5.37934C0.000277101 5.48897 0.0440586 5.59409 0.121552 5.67157C0.199045 5.74906 0.304158 5.79285 0.413786 5.79312H6.15514L7.26619 3.86898C7.20744 3.87646 7.14833 3.85826 7.1039 3.81901C7.05957 3.77984 7.03426 3.72341 7.03444 3.66411V3.28134C7.03648 3.16856 7.12847 3.07813 7.24134 3.07813C7.35421 3.07813 7.44621 3.16856 7.44824 3.28134V3.55243L8.58821 1.57858C9.73482 2.08003 9.35465 4.0727 8.67097 5.79314H11.5862C11.6959 5.79287 11.801 5.74909 11.8784 5.67159C11.9559 5.5941 11.9997 5.48899 12 5.37936V0.413816C12 0.304087 11.9564 0.19879 11.8788 0.121204C11.8012 0.0436187 11.6959 2.12872e-05 11.5862 2.12872e-05L11.5863 0ZM3.61049 1.448C3.79033 1.44994 3.95567 1.54701 4.04507 1.70311C4.13439 1.85921 4.13439 2.05086 4.04507 2.20697C3.95566 2.36307 3.79034 2.46014 3.61049 2.46208C3.43066 2.46014 3.26532 2.36307 3.17601 2.20697C3.0866 2.05087 3.0866 1.85922 3.17601 1.70311C3.26532 1.54701 3.43067 1.44994 3.61049 1.448ZM5.06904 4.34457C4.8856 4.34253 4.71693 4.24352 4.62578 4.08428C4.53462 3.92513 4.53462 3.7295 4.62578 3.57037C4.71695 3.41113 4.8856 3.31211 5.06904 3.31008C5.25248 3.31211 5.42114 3.41112 5.5123 3.57037C5.60346 3.72951 5.60346 3.92514 5.5123 4.08437C5.42113 4.24352 5.25248 4.34253 5.06904 4.34457ZM5.49539 2.1846L3.42641 4.25358V4.25367C3.30468 4.37199 3.11053 4.3706 2.99053 4.25062C2.87055 4.13055 2.86917 3.9364 2.98749 3.81474L5.05646 1.74577C5.1782 1.62763 5.37218 1.62911 5.49215 1.749C5.61204 1.86898 5.61352 2.06294 5.49539 2.18469L5.49539 2.1846ZM7.44836 2.51176C7.4467 2.62481 7.35452 2.71561 7.24146 2.71561C7.12841 2.71561 7.03623 2.62482 7.03457 2.51176V2.12688C7.03457 2.01263 7.12721 1.91999 7.24146 1.91999C7.35572 1.91999 7.44836 2.01263 7.44836 2.12688V2.51176ZM7.44836 1.35933C7.4467 1.47238 7.35452 1.56318 7.24146 1.56318C7.12841 1.56318 7.03623 1.47238 7.03457 1.35933V0.974452C7.03457 0.860197 7.12721 0.767555 7.24146 0.767555C7.35572 0.767555 7.44836 0.860197 7.44836 0.974452V1.35933Z" fill="#704B99"/>
</svg>
