<svg width="48" height="48" viewBox="0 0 48 48" fill="none" xmlns="http://www.w3.org/2000/svg">
<path opacity="0.5" fill-rule="evenodd" clip-rule="evenodd" d="M23.9998 10C17.4798 10 11.5998 11.7 5.83984 15.3L23.9998 37.66L42.1598 15.34C36.3598 11.7 30.4998 10 23.9998 10ZM21.9998 32V20H25.9998V32H21.9998ZM21.9998 12V16H25.9998V12H21.9998Z" fill="#F2994A"/>
<path fill-rule="evenodd" clip-rule="evenodd" d="M0 14.46C6.3 9.7 13.9 6 24 6C34.1 6 41.7 9.74 48 14.5L24 44L0 14.46ZM24 10C17.48 10 11.6 11.7 5.84 15.3L24 37.66L42.16 15.34C36.36 11.7 30.5 10 24 10Z" fill="#F2994A"/>
<path d="M22 20H26V32H22V20Z" fill="#F2994A"/>
<path d="M22 12H26V16H22V12Z" fill="#F2994A"/>
</svg>
